# Blender 4.3.2
# www.blender.org
mtllib arrow.mtl
o Cube
v 0.000000 -0.100000 -1.000000
v 0.000000 0.100000 -1.000000
v 0.000000 0.054498 -2.000000
v 0.000000 0.100000 -1.935651
v -0.954498 0.054498 -1.000000
v -0.890150 0.100000 -1.045501
v -0.967826 0.054498 -1.032174
v -0.967826 -0.054498 -1.032174
v -0.890150 -0.100000 -1.045501
v -0.954498 -0.054498 -1.000000
v 0.000000 -0.100000 -1.935651
v 0.000000 -0.054498 -2.000000
v -0.300000 0.054498 -1.000000
v -0.254499 0.100000 -1.045501
v -0.300000 -0.054498 -1.000000
v -0.254499 -0.100000 -1.045501
v -0.300000 0.054498 0.954498
v -0.254499 0.054498 1.000000
v -0.254499 0.100000 0.954498
v -0.254499 -0.100000 0.954498
v -0.254499 -0.054498 1.000000
v -0.300000 -0.054498 0.954498
v 0.000000 0.100000 0.954498
v 0.000000 0.054498 1.000000
v 0.000000 -0.054498 1.000000
v 0.000000 -0.100000 0.954498
v 0.954498 0.054498 -1.000000
v 0.890150 0.100000 -1.045501
v 0.967826 0.054498 -1.032174
v 0.967826 -0.054498 -1.032174
v 0.890150 -0.100000 -1.045501
v 0.954498 -0.054498 -1.000000
v 0.300000 0.054498 -1.000000
v 0.254499 0.100000 -1.045501
v 0.300000 -0.054498 -1.000000
v 0.254499 -0.100000 -1.045501
v 0.300000 0.054498 0.954498
v 0.254499 0.054498 1.000000
v 0.254499 0.100000 0.954498
v 0.254499 -0.100000 0.954498
v 0.254499 -0.054498 1.000000
v 0.300000 -0.054498 0.954498
vn -0.0000 -1.0000 -0.0000
vn -0.0000 1.0000 -0.0000
vn -0.0000 -0.0000 1.0000
vn -1.0000 -0.0000 -0.0000
vn -0.4706 0.8605 0.1949
vn -0.4706 -0.8605 0.1949
vn -0.5773 0.5774 0.5773
vn -0.5773 -0.5774 0.5773
vn -0.7071 -0.7071 -0.0000
vn -0.0000 0.7071 0.7071
vn -0.7071 -0.0000 0.7071
vn -0.5000 0.7071 -0.5000
vn -0.5000 -0.7071 -0.5000
vn -0.7071 0.7071 -0.0000
vn -0.0000 -0.7071 0.7071
vn -0.9239 -0.0000 0.3827
vn -0.7071 -0.0000 -0.7071
vn 1.0000 -0.0000 -0.0000
vn 0.4706 0.8605 0.1949
vn 0.4706 -0.8605 0.1949
vn 0.5773 0.5774 0.5773
vn 0.5773 -0.5774 0.5773
vn 0.7071 -0.7071 -0.0000
vn 0.7071 -0.0000 0.7071
vn 0.5000 0.7071 -0.5000
vn 0.5000 -0.7071 -0.5000
vn 0.7071 0.7071 -0.0000
vn 0.9239 -0.0000 0.3827
vn 0.7071 -0.0000 -0.7071
vt 0.143959 0.494312
vt 0.250000 0.500000
vt 0.250000 0.744312
vt 0.143959 0.744312
vt 0.750000 0.500000
vt 0.856041 0.494312
vt 0.856041 0.744312
vt 0.750000 0.744312
vt 0.431877 0.250000
vt 0.568123 0.250000
vt 0.431877 0.250000
vt 0.431877 0.005688
vt 0.568123 0.005688
vt 0.431877 0.875000
vt 0.568123 0.875000
vt 0.568123 0.981041
vt 0.431877 0.981041
vt 0.842603 0.500000
vt 0.868527 0.500000
vt 0.157397 0.500000
vt 0.131473 0.500000
vt 0.875000 0.500000
vt 0.870978 0.500000
vt 0.129022 0.500000
vt 0.125000 0.500000
vt 0.875000 0.744312
vt 0.856041 0.750000
vt 0.143959 0.750000
vt 0.125000 0.744312
vt 0.431877 0.000000
vt 0.568123 0.000000
vt 0.750000 0.750000
vt 0.568123 0.254022
vt 0.431877 0.254022
vt 0.250000 0.750000
vt 0.568123 0.375000
vt 0.431877 0.375000
s 0
usemtl Material
f 16/1/1 1/2/1 26/3/1 20/4/1
f 2/5/2 14/6/2 19/7/2 23/8/2
f 15/9/3 13/10/3 5/10/3 10/11/3
f 22/12/4 17/13/4 13/10/4 15/9/4
f 25/14/3 24/15/3 18/16/3 21/17/3
f 14/18/2 2/5/2 4/5/2 6/19/2
f 1/2/1 16/20/1 9/21/1 11/2/1
f 5/22/5 6/19/5 7/23/5
f 8/24/6 9/21/6 10/25/6
f 17/26/7 18/27/7 19/7/7
f 20/4/8 21/28/8 22/29/8
f 16/1/9 20/4/9 22/29/9 15/25/9
f 5/22/10 13/22/10 14/18/10 6/19/10
f 21/30/11 18/31/11 17/13/11 22/12/11
f 6/19/12 4/5/12 3/5/12 7/23/12
f 23/8/10 19/7/10 18/27/10 24/32/10
f 11/2/13 9/21/13 8/24/13 12/2/13
f 19/7/14 14/6/14 13/22/14 17/26/14
f 15/25/15 10/25/15 9/21/15 16/20/15
f 7/33/16 8/34/16 10/11/16 5/10/16
f 20/4/15 26/3/15 25/35/15 21/28/15
f 8/34/17 7/33/17 3/36/17 12/37/17
f 36/1/1 40/4/1 26/3/1 1/2/1
f 2/5/2 23/8/2 39/7/2 34/6/2
f 35/9/3 32/11/3 27/10/3 33/10/3
f 42/12/18 35/9/18 33/10/18 37/13/18
f 25/14/3 41/17/3 38/16/3 24/15/3
f 34/18/2 28/19/2 4/5/2 2/5/2
f 1/2/1 11/2/1 31/21/1 36/20/1
f 27/22/19 29/23/19 28/19/19
f 30/24/20 32/25/20 31/21/20
f 37/26/21 39/7/21 38/27/21
f 40/4/22 42/29/22 41/28/22
f 36/1/23 35/25/23 42/29/23 40/4/23
f 27/22/10 28/19/10 34/18/10 33/22/10
f 41/30/24 42/12/24 37/13/24 38/31/24
f 28/19/25 29/23/25 3/5/25 4/5/25
f 23/8/10 24/32/10 38/27/10 39/7/10
f 11/2/26 12/2/26 30/24/26 31/21/26
f 39/7/27 37/26/27 33/22/27 34/6/27
f 35/25/15 36/20/15 31/21/15 32/25/15
f 29/33/28 27/10/28 32/11/28 30/34/28
f 40/4/15 41/28/15 25/35/15 26/3/15
f 30/34/29 12/37/29 3/36/29 29/33/29
