# Blender 4.3.2
# www.blender.org
mtllib destination.mtl
o Plane
v -2.000000 0.000000 3.000000
v 2.000000 0.000000 3.000000
v -2.000000 0.000000 -3.000000
v 2.000000 0.000000 -3.000000
v -1.532515 0.000000 -2.528650
v -1.532515 0.000000 2.528650
v 1.532515 0.000000 2.528650
v 1.532515 0.000000 -2.528650
vn -0.0000 1.0000 -0.0000
vt 0.116871 0.116871
vt 0.116871 0.883129
vt 0.000000 1.000000
vt 0.000000 0.000000
vt 0.883129 0.116871
vt 1.000000 0.000000
vt 0.883129 0.883129
vt 1.000000 1.000000
s 0
f 6/1/1 5/2/1 3/3/1 1/4/1
f 7/5/1 6/1/1 1/4/1 2/6/1
f 8/7/1 7/5/1 2/6/1 4/8/1
f 5/2/1 8/7/1 4/8/1 3/3/1
